<svg width="24" height="24" viewBox="0 0 24 24" fill="none" xmlns="http://www.w3.org/2000/svg">
<g id="Like filled 1" clip-path="url(#clip0_1561_1893)">
<path id="Vector" d="M22.773 7.72101C22.3041 7.18062 21.7245 6.74729 21.0736 6.45037C20.4226 6.15344 19.7155 5.99986 19 6.00001H15.011L15.347 3.95901C15.4659 3.24027 15.3225 2.50275 14.9429 1.88095C14.5633 1.25916 13.9728 0.794524 13.2792 0.571803C12.5856 0.349082 11.835 0.383112 11.1644 0.667687C10.4938 0.952261 9.94777 1.46842 9.626 2.12201L8 5.41701V21H18.3C19.5035 20.9951 20.6652 20.5583 21.5738 19.7692C22.4824 18.98 23.0776 17.8909 23.251 16.7L23.956 11.7C24.0557 10.9907 24.0016 10.2683 23.7975 9.58177C23.5934 8.89523 23.244 8.26062 22.773 7.72101Z" fill="#9F9F9F"/>
<path id="Vector_2" d="M0 11V16C0.00158786 17.3256 0.528882 18.5964 1.46622 19.5338C2.40356 20.4711 3.67441 20.9984 5 21H6V6H5C3.67441 6.00159 2.40356 6.52888 1.46622 7.46622C0.528882 8.40356 0.00158786 9.67441 0 11Z" fill="#9F9F9F"/>
</g>
<defs>
<clipPath id="clip0_1561_1893">
<rect width="24" height="24" fill="white"/>
</clipPath>
</defs>
</svg>
