<svg width="20" height="20" viewBox="0 0 20 20" fill="none" xmlns="http://www.w3.org/2000/svg">
<g id="mail outlined 2" clip-path="url(#clip0_1847_18676)">
<path id="Vector" d="M15.8333 0.835938H4.16667C3.062 0.837261 2.00296 1.27667 1.22185 2.05779C0.440735 2.8389 0.00132321 3.89794 0 5.0026L0 15.0026C0.00132321 16.1073 0.440735 17.1663 1.22185 17.9474C2.00296 18.7285 3.062 19.1679 4.16667 19.1693H15.8333C16.938 19.1679 17.997 18.7285 18.7782 17.9474C19.5593 17.1663 19.9987 16.1073 20 15.0026V5.0026C19.9987 3.89794 19.5593 2.8389 18.7782 2.05779C17.997 1.27667 16.938 0.837261 15.8333 0.835938ZM4.16667 2.5026H15.8333C16.3323 2.50359 16.8196 2.65387 17.2325 2.93411C17.6453 3.21435 17.9649 3.61173 18.15 4.0751L11.7683 10.4576C11.2987 10.9254 10.6628 11.188 10 11.188C9.33715 11.188 8.70131 10.9254 8.23167 10.4576L1.85 4.0751C2.03512 3.61173 2.35468 3.21435 2.76754 2.93411C3.1804 2.65387 3.66768 2.50359 4.16667 2.5026ZM15.8333 17.5026H4.16667C3.50363 17.5026 2.86774 17.2392 2.3989 16.7704C1.93006 16.3015 1.66667 15.6656 1.66667 15.0026V6.2526L7.05333 11.6359C7.83552 12.4162 8.89521 12.8543 10 12.8543C11.1048 12.8543 12.1645 12.4162 12.9467 11.6359L18.3333 6.2526V15.0026C18.3333 15.6656 18.0699 16.3015 17.6011 16.7704C17.1323 17.2392 16.4964 17.5026 15.8333 17.5026Z" fill="#6B7083"/>
</g>
<defs>
<clipPath id="clip0_1847_18676">
<rect width="20" height="20" fill="white"/>
</clipPath>
</defs>
</svg>
