<svg width="24" height="24" viewBox="0 0 24 24" fill="none" xmlns="http://www.w3.org/2000/svg">
<g id="phone-call outlined 1" clip-path="url(#clip0_741_602)">
<path id="Vector" d="M13 0.999995C13 0.734778 13.1053 0.480424 13.2929 0.292888C13.4804 0.105352 13.7348 -5.20493e-06 14 -5.20493e-06C16.6513 0.00290639 19.1931 1.05741 21.0678 2.93214C22.9426 4.80688 23.9971 7.34872 24 10C24 10.2652 23.8946 10.5196 23.7071 10.7071C23.5196 10.8946 23.2652 11 23 11C22.7348 11 22.4804 10.8946 22.2929 10.7071C22.1053 10.5196 22 10.2652 22 10C21.9976 7.879 21.154 5.84555 19.6542 4.34577C18.1544 2.846 16.121 2.00238 14 1.99999C13.7348 1.99999 13.4804 1.89464 13.2929 1.7071C13.1053 1.51957 13 1.26521 13 0.999995ZM14 6C15.0609 6 16.0783 6.42142 16.8284 7.17157C17.5786 7.92171 18 8.93913 18 10C18 10.2652 18.1053 10.5196 18.2929 10.7071C18.4804 10.8946 18.7348 11 19 11C19.2652 11 19.5196 10.8946 19.7071 10.7071C19.8946 10.5196 20 10.2652 20 10C19.9984 8.40918 19.3657 6.88398 18.2409 5.75911C17.116 4.63423 15.5908 4.00158 14 4C13.7348 4 13.4804 4.10535 13.2929 4.29289C13.1053 4.48042 13 4.73478 13 5C13 5.26521 13.1053 5.51957 13.2929 5.7071C13.4804 5.89464 13.7348 6 14 6ZM23.093 16.739C23.6725 17.3201 23.9979 18.1073 23.9979 18.928C23.9979 19.7487 23.6725 20.5359 23.093 21.117L22.183 22.166C13.993 30.007 -5.93701 10.082 1.78299 1.866L2.93299 0.865995C3.51475 0.302672 4.29492 -0.00895613 5.10469 -0.00147036C5.91446 0.0060154 6.68873 0.332013 7.25999 0.905995C7.29099 0.936995 9.14399 3.344 9.14399 3.344C9.69382 3.92162 9.99989 4.68892 9.99859 5.4864C9.99728 6.28387 9.6887 7.05017 9.13699 7.626L7.97899 9.082C8.61983 10.6391 9.56205 12.0542 10.7515 13.2461C11.9409 14.4379 13.3542 15.383 14.91 16.027L16.375 14.862C16.9509 14.3107 17.717 14.0025 18.5143 14.0014C19.3115 14.0003 20.0785 14.3063 20.656 14.856C20.656 14.856 23.062 16.708 23.093 16.739ZM21.717 18.193C21.717 18.193 19.324 16.352 19.293 16.321C19.087 16.1167 18.8086 16.0021 18.5185 16.0021C18.2284 16.0021 17.95 16.1167 17.744 16.321C17.717 16.349 15.7 17.956 15.7 17.956C15.5641 18.0642 15.4023 18.1351 15.2306 18.1618C15.059 18.1884 14.8833 18.1699 14.721 18.108C12.7054 17.3576 10.8747 16.1827 9.35282 14.6631C7.83092 13.1434 6.65339 11.3144 5.89999 9.3C5.83318 9.13545 5.81141 8.95609 5.83689 8.78033C5.86237 8.60458 5.9342 8.43879 6.04499 8.3C6.04499 8.3 7.65199 6.282 7.67899 6.256C7.88325 6.04998 7.99786 5.77161 7.99786 5.4815C7.99786 5.19138 7.88325 4.91301 7.67899 4.707C7.64799 4.677 5.80699 2.282 5.80699 2.282C5.59789 2.0945 5.32499 1.99409 5.04423 2.00134C4.76348 2.00859 4.49613 2.12296 4.29699 2.321L3.14699 3.321C-2.49501 10.105 14.776 26.418 20.721 20.8L21.632 19.75C21.8455 19.5523 21.9737 19.2793 21.9896 18.9887C22.0054 18.6981 21.9077 18.4128 21.717 18.193Z" fill="white"/>
</g>
<defs>
<clipPath id="clip0_741_602">
<rect width="24" height="24" fill="white"/>
</clipPath>
</defs>
</svg>
