<svg width="24" height="24" viewBox="0 0 24 24" fill="none" xmlns="http://www.w3.org/2000/svg">
<g id="upload 1" clip-path="url(#clip0_1847_18033)">
<path id="Vector" d="M11.0068 2.57836L10.9998 18.0164C10.9998 18.2816 11.1052 18.5359 11.2927 18.7235C11.4802 18.911 11.7346 19.0164 11.9998 19.0164C12.265 19.0164 12.5194 18.911 12.7069 18.7235C12.8945 18.5359 12.9998 18.2816 12.9998 18.0164L13.0068 2.59536L15.9188 5.50836C16.1063 5.69583 16.3606 5.80115 16.6258 5.80115C16.891 5.80115 17.1453 5.69583 17.3328 5.50836C17.5203 5.32083 17.6256 5.06652 17.6256 4.80136C17.6256 4.5362 17.5203 4.28189 17.3328 4.09436L14.1218 0.87936C13.8432 0.60058 13.5124 0.37943 13.1483 0.228545C12.7842 0.077661 12.3939 0 11.9998 0C11.6057 0 11.2154 0.077661 10.8513 0.228545C10.4872 0.37943 10.1564 0.60058 9.87781 0.87936L6.66681 4.09136C6.47934 4.27889 6.37402 4.5332 6.37402 4.79836C6.37402 5.06352 6.47934 5.31783 6.66681 5.50536C6.85434 5.69283 7.10865 5.79815 7.37381 5.79815C7.63897 5.79815 7.89328 5.69283 8.08081 5.50536L11.0068 2.57836Z" fill="#FF8000"/>
<path id="Vector_2" d="M22 17V21C22 21.2652 21.8946 21.5196 21.7071 21.7071C21.5196 21.8946 21.2652 22 21 22H3C2.73478 22 2.48043 21.8946 2.29289 21.7071C2.10536 21.5196 2 21.2652 2 21V17C2 16.7348 1.89464 16.4804 1.70711 16.2929C1.51957 16.1054 1.26522 16 1 16C0.734784 16 0.48043 16.1054 0.292893 16.2929C0.105357 16.4804 0 16.7348 0 17L0 21C0 21.7956 0.31607 22.5587 0.87868 23.1213C1.44129 23.6839 2.20435 24 3 24H21C21.7956 24 22.5587 23.6839 23.1213 23.1213C23.6839 22.5587 24 21.7956 24 21V17C24 16.7348 23.8946 16.4804 23.7071 16.2929C23.5196 16.1054 23.2652 16 23 16C22.7348 16 22.4804 16.1054 22.2929 16.2929C22.1054 16.4804 22 16.7348 22 17Z" fill="#FF8000"/>
</g>
<defs>
<clipPath id="clip0_1847_18033">
<rect width="24" height="24" fill="white"/>
</clipPath>
</defs>
</svg>
