<svg width="24" height="24" viewBox="0 0 24 24" fill="none" xmlns="http://www.w3.org/2000/svg">
<g id="Like filled 2" clip-path="url(#clip0_1561_1897)">
<path id="Vector" d="M1.227 16.279C1.69591 16.8194 2.27546 17.2527 2.92642 17.5496C3.57737 17.8466 4.28453 18.0001 5 18L8.989 18L8.653 20.041C8.53411 20.7597 8.67755 21.4973 9.05714 22.119C9.43673 22.7408 10.0272 23.2055 10.7208 23.4282C11.4144 23.6509 12.165 23.6169 12.8356 23.3323C13.5062 23.0477 14.0522 22.5316 14.374 21.878L16 18.583L16 2.99998L5.7 2.99998C4.49653 3.00491 3.33482 3.44168 2.4262 4.23083C1.51758 5.01998 0.92242 6.10907 0.748999 7.29999L0.0439996 12.3C-0.0556841 13.0093 -0.00163355 13.7317 0.202483 14.4182C0.406601 15.1048 0.756008 15.7394 1.227 16.279Z" fill="#9F9F9F"/>
<path id="Vector_2" d="M24 13L24 8C23.9984 6.67441 23.4711 5.40356 22.5338 4.46622C21.5964 3.52888 20.3256 3.00159 19 3L18 3L18 18L19 18C20.3256 17.9984 21.5964 17.4711 22.5338 16.5338C23.4711 15.5964 23.9984 14.3256 24 13Z" fill="#9F9F9F"/>
</g>
<defs>
<clipPath id="clip0_1561_1897">
<rect width="24" height="24" fill="white" transform="translate(24 24) rotate(180)"/>
</clipPath>
</defs>
</svg>
