<svg width="20" height="20" viewBox="0 0 20 20" fill="none" xmlns="http://www.w3.org/2000/svg">
<g id="school 1" clip-path="url(#clip0_1847_18669)">
<path id="Vector" d="M15.8333 5.00103H11.9342C11.602 4.76429 11.2287 4.59136 10.8333 4.49103V4.1677L13.775 2.79103C13.8956 2.7163 13.9951 2.61201 14.0641 2.48805C14.1331 2.36409 14.1693 2.22457 14.1693 2.0827C14.1693 1.94083 14.1331 1.8013 14.0641 1.67735C13.9951 1.55339 13.8956 1.4491 13.775 1.37437L11.1083 0.124365C10.9001 0.0270753 10.6707 -0.0160375 10.4414 -0.000971322C10.2121 0.0140949 9.99028 0.0868517 9.79659 0.210546C9.6029 0.33424 9.4436 0.504862 9.33348 0.706574C9.22335 0.908287 9.16597 1.13455 9.16667 1.36437V4.49103C8.7715 4.59121 8.39846 4.76417 8.06667 5.00103H4.16667C3.062 5.00236 2.00296 5.44177 1.22185 6.22288C0.440735 7.004 0.00132321 8.06304 0 9.1677L0 17.501C0 18.1641 0.263392 18.8 0.732233 19.2688C1.20107 19.7376 1.83696 20.001 2.5 20.001H17.5C18.163 20.001 18.7989 19.7376 19.2678 19.2688C19.7366 18.8 20 18.1641 20 17.501V9.1677C19.9987 8.06304 19.5593 7.004 18.7782 6.22288C17.997 5.44177 16.938 5.00236 15.8333 5.00103ZM18.18 8.33437H16.3808C15.7182 8.33268 15.0829 8.06943 14.6133 7.60187L13.6783 6.6677H15.8333C16.3486 6.66984 16.8505 6.8311 17.2706 7.12944C17.6906 7.42778 18.0083 7.84861 18.18 8.33437ZM4.16667 6.6677H6.32167L5.38667 7.60187C4.91706 8.06943 4.28184 8.33268 3.61917 8.33437H1.82C1.99174 7.84861 2.30936 7.42778 2.72942 7.12944C3.14948 6.8311 3.65145 6.66984 4.16667 6.6677ZM10.8333 18.3344H9.16667V15.8344C9.16667 15.6134 9.25446 15.4014 9.41074 15.2451C9.56702 15.0888 9.77899 15.001 10 15.001C10.221 15.001 10.433 15.0888 10.5893 15.2451C10.7455 15.4014 10.8333 15.6134 10.8333 15.8344V18.3344ZM17.5 18.3344H12.5V15.8344C12.5 15.1713 12.2366 14.5354 11.7678 14.0666C11.2989 13.5978 10.663 13.3344 10 13.3344C9.33696 13.3344 8.70107 13.5978 8.23223 14.0666C7.76339 14.5354 7.5 15.1713 7.5 15.8344V18.3344H2.5C2.27899 18.3344 2.06702 18.2466 1.91074 18.0903C1.75446 17.934 1.66667 17.722 1.66667 17.501V10.001H3.61917C4.16651 10.0024 4.70869 9.89517 5.21434 9.68562C5.71999 9.47606 6.17906 9.16832 6.565 8.7802L8.82167 6.52437C9.13421 6.21191 9.55806 6.03639 10 6.03639C10.4419 6.03639 10.8658 6.21191 11.1783 6.52437L13.435 8.7802C13.8209 9.16832 14.28 9.47606 14.7857 9.68562C15.2913 9.89517 15.8335 10.0024 16.3808 10.001H18.3333V17.501C18.3333 17.722 18.2455 17.934 18.0893 18.0903C17.933 18.2466 17.721 18.3344 17.5 18.3344ZM5.83333 12.501C5.83333 12.722 5.74554 12.934 5.58926 13.0903C5.43297 13.2466 5.22101 13.3344 5 13.3344H4.16667C3.94565 13.3344 3.73369 13.2466 3.57741 13.0903C3.42113 12.934 3.33333 12.722 3.33333 12.501C3.33333 12.28 3.42113 12.0681 3.57741 11.9118C3.73369 11.7555 3.94565 11.6677 4.16667 11.6677H5C5.22101 11.6677 5.43297 11.7555 5.58926 11.9118C5.74554 12.0681 5.83333 12.28 5.83333 12.501ZM5.83333 15.8344C5.83333 16.0554 5.74554 16.2673 5.58926 16.4236C5.43297 16.5799 5.22101 16.6677 5 16.6677H4.16667C3.94565 16.6677 3.73369 16.5799 3.57741 16.4236C3.42113 16.2673 3.33333 16.0554 3.33333 15.8344C3.33333 15.6134 3.42113 15.4014 3.57741 15.2451C3.73369 15.0888 3.94565 15.001 4.16667 15.001H5C5.22101 15.001 5.43297 15.0888 5.58926 15.2451C5.74554 15.4014 5.83333 15.6134 5.83333 15.8344ZM16.6667 12.501C16.6667 12.722 16.5789 12.934 16.4226 13.0903C16.2663 13.2466 16.0543 13.3344 15.8333 13.3344H15C14.779 13.3344 14.567 13.2466 14.4107 13.0903C14.2545 12.934 14.1667 12.722 14.1667 12.501C14.1667 12.28 14.2545 12.0681 14.4107 11.9118C14.567 11.7555 14.779 11.6677 15 11.6677H15.8333C16.0543 11.6677 16.2663 11.7555 16.4226 11.9118C16.5789 12.0681 16.6667 12.28 16.6667 12.501ZM16.6667 15.8344C16.6667 16.0554 16.5789 16.2673 16.4226 16.4236C16.2663 16.5799 16.0543 16.6677 15.8333 16.6677H15C14.779 16.6677 14.567 16.5799 14.4107 16.4236C14.2545 16.2673 14.1667 16.0554 14.1667 15.8344C14.1667 15.6134 14.2545 15.4014 14.4107 15.2451C14.567 15.0888 14.779 15.001 15 15.001H15.8333C16.0543 15.001 16.2663 15.0888 16.4226 15.2451C16.5789 15.4014 16.6667 15.6134 16.6667 15.8344ZM11.6667 10.001C11.6667 10.3307 11.5689 10.6529 11.3858 10.927C11.2026 11.2011 10.9423 11.4147 10.6378 11.5408C10.3333 11.667 9.99815 11.7 9.67485 11.6357C9.35155 11.5714 9.05458 11.4126 8.82149 11.1795C8.5884 10.9465 8.42967 10.6495 8.36536 10.3262C8.30105 10.0029 8.33405 9.66777 8.4602 9.36323C8.58635 9.05868 8.79997 8.79839 9.07405 8.61525C9.34813 8.43211 9.67036 8.33437 10 8.33437C10.442 8.33437 10.8659 8.50996 11.1785 8.82252C11.4911 9.13508 11.6667 9.559 11.6667 10.001Z" fill="#6B7083"/>
</g>
<defs>
<clipPath id="clip0_1847_18669">
<rect width="20" height="20" fill="white"/>
</clipPath>
</defs>
</svg>
